<?xml version="1.0" encoding="utf-8"?>
<!-- Generator: Adobe Illustrator 16.0.0, SVG Export Plug-In . SVG Version: 6.00 Build 0)  -->
<!DOCTYPE svg PUBLIC "-//W3C//DTD SVG 1.1//EN" "http://www.w3.org/Graphics/SVG/1.1/DTD/svg11.dtd">
<svg version="1.1" id="Ebene_1" xmlns="http://www.w3.org/2000/svg" xmlns:xlink="http://www.w3.org/1999/xlink" x="0px" y="0px"
	 width="1024px" height="1024px" viewBox="0 0 1024 1024" enable-background="new 0 0 1024 1024" xml:space="preserve">
<path fill="#BABABA" d="M216.458,216.702C292.144,140.75,396.784,93.667,512.227,93.667c214.518,0,391.701,162.56,415.049,370.943
	c28.93-5.179,70.457-11.988,88.962-11.988c0.205,0,0.488,0,0.721,0C987.807,199.646,773.012,3.183,512.227,3.183
	c-165.975,0-313.346,79.602-406.092,202.667C151.813,210.257,191.618,214.173,216.458,216.702z"/>
<path fill="#BABABA" d="M608.424,993.2c5.81-29.081,12.16-63.237,14.51-79.065c-35.286,9.724-72.378,15.009-110.707,15.009
	c-38.317,0-75.407-5.285-110.686-14.985c3.87,29.08,43.568,72.301,42.186,100.73c22.414,3.03,45.258,4.742,68.5,4.742
	c31.652,0,62.565-3.029,92.624-8.592L608.424,993.2z"/>
<path fill="#BABABA" d="M199.679,788.146c-14.142-15.963-27.062-33.018-38.665-51.006c-34.591,6.401-67.705,9.681-99.058,9.93
	c35.708,68.084,86.323,127.102,147.614,172.623C214.542,897.147,215.64,828.109,199.679,788.146z"/>
<g>
	<path fill="#2B5F58" d="M288.866,848.764c11.458-29.037,24.862-115.901,25.434-119.565c0,0,31.938-4.492,41.778-0.781
		c25.006-9.582,52.33-33.514,55.815-37.019c-18.302-18.153-41.396-47.294-42.187-85.917c-0.834-40.827-1.367-78.89,33.621-84.846
		c21.049-3.572,60.643,37.14,94.325,43.813c2.335-6.875,4.578-12.524,6.69-15.479c7.804-10.935,28.104-19.516,42.162-33.581
		c12.872-12.874,45.282-60.895,45.282-60.895s77.289,6.24,92.898,6.24c15.614,0,34.358-2.341,43.725-7.8
		c38.256,21.083,64.805,13.276,83.535-3.908c18.743-17.177,13.279-51.528-8.585-57.769c-19.475-5.559-36.694-39.828-51.525-71.043
		c-7.071-14.89,0.772-37.481-13.283-49.182c22.65-17.971,34.355-39.055,34.355-50.755c0-20.289-31.233-21.076-48.406-22.636
		c-17.177-1.561-28.094,21.084-28.094,21.084s-4.907-14.7-14.054-17.964c-14.784-5.293-29.675,3.121-29.675,3.121
		s-16.569-5.748-26.542-3.893c-10.229,1.886-20.294,7.808-28.104,30.444c-5.475-18.743-18.74-36.7-32.795-35.14
		c-14.059,1.56-25.761,26.552-27.324,48.4c-24.203-3.105-113.207,10.93-136.631,9.369c-23.42-1.544-67.141-39.025-171.757-4.682
		c-22.822-2.445-78.542-7.905-143.205-14.138C34.329,313.973,4.006,409.129,4.006,511.406c0,73.128,15.563,142.58,43.353,205.399
		c43.891,1.136,102.791-4.277,177.479-25.754c3.127,39.03,1.419,99.649,10.151,120.231c19.895,46.861,6.558,106.859,1.177,126.762
		c23.86,15.46,49.048,29.034,75.434,40.372c-0.598-9.589-9.842-26.505-19.619-42.987
		C294.322,910.447,288.866,869.052,288.866,848.764z"/>
	<path fill="#2B5F58" d="M370.058,883.895c1.885-10.064,3.472-19.282,4.828-27.868c-16.104-8.695-33.068-17.354-56.355-49.454
		c0.875,8.739,1.904,16.253,3.123,21.109c4.685,18.732,0.781,98.389-2.339,115.557c-2.636,14.433,13.042,38.299,18.115,45.539
		c24.601,9.02,50.123,16.099,76.337,21.241c2.288-4.847-1.555-10.563-1.555-10.563S360.689,933.855,370.058,883.895z"/>
</g>
<path fill="#668C88" d="M1020.352,511.513c0-9.475-0.313-18.881-0.826-28.241c-35.258,2.772-116.366,16.509-116.366,16.509
	s-102.061-7.989-171.103,11.012c-69.031,19.024-218.131,103.071-222.129,103.071c-4.002,0-12.913-12.094-15.669-14.442
	c-3.335-2.795-83.389-49.611-87.398-48.59c-4.003,1.001-7.999,4.991-7.002,54.036c1.004,49.026,55.038,81.039,54.027,85.047
	c-0.995,4.005-32.011,34.02-37.017,39.031c-5.002,4.984-56.966,25.271-56.966,25.271s-18.082-0.273-22.079,0.729
	c0,0-3.003,14.001,3.998,30.011c7.008,16.034,20.013,40.031,27.017,41.032c7.001,1.008,32.024-6.013,38.022-6.013
	c6.005,0,19.013,8.018,25.022,9.02c5.997,0.978,88.048,13.004,96.054,13.004c8.005,0,70.038,14.001,81.053,17.007
	c11.005,3.01,45.022,6.014,45.022,6.014s0,30.014,0,42.01c0,9.181-14.983,70.069-22.053,98.276
	c4.184-1.021,8.359-2.043,12.488-3.141c1.031-0.614,1.945-0.907,2.646-0.772c0.068,0,0.143-0.023,0.199-0.047
	c6.819-1.892,13.572-3.87,20.29-6.014c1.22-0.364,2.41-0.819,3.627-1.202c5.713-1.872,11.396-3.756,17.012-5.831
	c0.047-0.023,0.07-0.023,0.104-0.045l48.731-96.228l-4.75,77.603c0.045-0.021,0.082-0.044,0.121-0.067
	c2.593-1.234,5.094-2.618,7.658-3.923c4.662-2.34,9.357-4.642,13.934-7.125c4.719-2.546,9.333-5.279,13.954-7.992
	c2.265-1.342,4.584-2.575,6.825-3.913c5.776-11.777,11.723-23.455,16.297-31.558c13.013-23.024,19.288-52.196,19.288-52.196
	s49.288-5.574,77.033-8.715C969.97,763.783,1020.352,643.551,1020.352,511.513z"/>
</svg>
